<mxfile host="Electron" agent="Mozilla/5.0 (Windows NT 10.0; Win64; x64) AppleWebKit/537.36 (KHTML, like Gecko) draw.io/27.0.5 Chrome/134.0.6998.205 Electron/35.3.0 Safari/537.36" version="27.0.5">
  <diagram name="Page-1" id="GWXCVyjSArQrqNLjXNuz">
    <mxGraphModel dx="1665" dy="841" grid="1" gridSize="10" guides="1" tooltips="1" connect="1" arrows="1" fold="1" page="1" pageScale="1" pageWidth="850" pageHeight="1100" math="0" shadow="0">
      <root>
        <mxCell id="0" />
        <mxCell id="1" parent="0" />
        <mxCell id="mQKh0cZ0V53EBKpTxfbn-26" style="edgeStyle=orthogonalEdgeStyle;rounded=0;orthogonalLoop=1;jettySize=auto;html=1;exitX=0.5;exitY=1;exitDx=0;exitDy=0;" edge="1" parent="1" source="mQKh0cZ0V53EBKpTxfbn-1" target="mQKh0cZ0V53EBKpTxfbn-4">
          <mxGeometry relative="1" as="geometry" />
        </mxCell>
        <mxCell id="mQKh0cZ0V53EBKpTxfbn-1" value="API Gateway&lt;div&gt;(SprintBoot)&lt;/div&gt;" style="rounded=0;whiteSpace=wrap;html=1;" vertex="1" parent="1">
          <mxGeometry x="410" y="140" width="120" height="60" as="geometry" />
        </mxCell>
        <mxCell id="mQKh0cZ0V53EBKpTxfbn-8" style="edgeStyle=orthogonalEdgeStyle;rounded=0;orthogonalLoop=1;jettySize=auto;html=1;exitX=0.75;exitY=1;exitDx=0;exitDy=0;entryX=0.25;entryY=0;entryDx=0;entryDy=0;" edge="1" parent="1" source="mQKh0cZ0V53EBKpTxfbn-2" target="mQKh0cZ0V53EBKpTxfbn-4">
          <mxGeometry relative="1" as="geometry" />
        </mxCell>
        <mxCell id="mQKh0cZ0V53EBKpTxfbn-18" style="edgeStyle=orthogonalEdgeStyle;rounded=0;orthogonalLoop=1;jettySize=auto;html=1;exitX=0.5;exitY=1;exitDx=0;exitDy=0;entryX=0;entryY=0;entryDx=0;entryDy=0;" edge="1" parent="1" source="mQKh0cZ0V53EBKpTxfbn-2" target="mQKh0cZ0V53EBKpTxfbn-4">
          <mxGeometry relative="1" as="geometry" />
        </mxCell>
        <mxCell id="mQKh0cZ0V53EBKpTxfbn-2" value="Redis" style="rounded=0;whiteSpace=wrap;html=1;" vertex="1" parent="1">
          <mxGeometry x="340" y="280" width="120" height="60" as="geometry" />
        </mxCell>
        <mxCell id="mQKh0cZ0V53EBKpTxfbn-3" value="RabbitMq" style="rounded=0;whiteSpace=wrap;html=1;" vertex="1" parent="1">
          <mxGeometry x="99" y="408" width="120" height="60" as="geometry" />
        </mxCell>
        <mxCell id="mQKh0cZ0V53EBKpTxfbn-7" style="edgeStyle=orthogonalEdgeStyle;rounded=0;orthogonalLoop=1;jettySize=auto;html=1;exitX=0.75;exitY=0;exitDx=0;exitDy=0;entryX=0.75;entryY=1;entryDx=0;entryDy=0;" edge="1" parent="1" source="mQKh0cZ0V53EBKpTxfbn-4" target="mQKh0cZ0V53EBKpTxfbn-1">
          <mxGeometry relative="1" as="geometry" />
        </mxCell>
        <mxCell id="mQKh0cZ0V53EBKpTxfbn-14" style="edgeStyle=orthogonalEdgeStyle;rounded=0;orthogonalLoop=1;jettySize=auto;html=1;exitX=1;exitY=0.5;exitDx=0;exitDy=0;entryX=0;entryY=0.5;entryDx=0;entryDy=0;" edge="1" parent="1" source="mQKh0cZ0V53EBKpTxfbn-4" target="mQKh0cZ0V53EBKpTxfbn-13">
          <mxGeometry relative="1" as="geometry" />
        </mxCell>
        <mxCell id="mQKh0cZ0V53EBKpTxfbn-16" style="edgeStyle=orthogonalEdgeStyle;rounded=0;orthogonalLoop=1;jettySize=auto;html=1;exitX=0.5;exitY=1;exitDx=0;exitDy=0;" edge="1" parent="1" source="mQKh0cZ0V53EBKpTxfbn-4" target="mQKh0cZ0V53EBKpTxfbn-15">
          <mxGeometry relative="1" as="geometry" />
        </mxCell>
        <mxCell id="mQKh0cZ0V53EBKpTxfbn-4" value="Go Trading Service" style="rounded=0;whiteSpace=wrap;html=1;" vertex="1" parent="1">
          <mxGeometry x="410" y="400" width="120" height="60" as="geometry" />
        </mxCell>
        <mxCell id="mQKh0cZ0V53EBKpTxfbn-9" style="edgeStyle=orthogonalEdgeStyle;rounded=0;orthogonalLoop=1;jettySize=auto;html=1;exitX=1;exitY=0.25;exitDx=0;exitDy=0;entryX=0;entryY=0.25;entryDx=0;entryDy=0;" edge="1" parent="1" source="mQKh0cZ0V53EBKpTxfbn-5" target="mQKh0cZ0V53EBKpTxfbn-2">
          <mxGeometry relative="1" as="geometry" />
        </mxCell>
        <mxCell id="mQKh0cZ0V53EBKpTxfbn-17" style="edgeStyle=orthogonalEdgeStyle;rounded=0;orthogonalLoop=1;jettySize=auto;html=1;exitX=1;exitY=1;exitDx=0;exitDy=0;entryX=0;entryY=0.5;entryDx=0;entryDy=0;" edge="1" parent="1" source="mQKh0cZ0V53EBKpTxfbn-5" target="mQKh0cZ0V53EBKpTxfbn-15">
          <mxGeometry relative="1" as="geometry" />
        </mxCell>
        <mxCell id="mQKh0cZ0V53EBKpTxfbn-5" value="Python Stock Data service" style="rounded=0;whiteSpace=wrap;html=1;" vertex="1" parent="1">
          <mxGeometry x="110" y="280" width="120" height="60" as="geometry" />
        </mxCell>
        <mxCell id="mQKh0cZ0V53EBKpTxfbn-6" value="yfiance" style="rounded=0;whiteSpace=wrap;html=1;" vertex="1" parent="1">
          <mxGeometry x="120" y="150" width="120" height="60" as="geometry" />
        </mxCell>
        <mxCell id="mQKh0cZ0V53EBKpTxfbn-11" style="edgeStyle=orthogonalEdgeStyle;rounded=0;orthogonalLoop=1;jettySize=auto;html=1;exitX=1;exitY=0.25;exitDx=0;exitDy=0;entryX=-0.033;entryY=0.383;entryDx=0;entryDy=0;entryPerimeter=0;" edge="1" parent="1" source="mQKh0cZ0V53EBKpTxfbn-3" target="mQKh0cZ0V53EBKpTxfbn-4">
          <mxGeometry relative="1" as="geometry" />
        </mxCell>
        <mxCell id="mQKh0cZ0V53EBKpTxfbn-12" style="edgeStyle=orthogonalEdgeStyle;rounded=0;orthogonalLoop=1;jettySize=auto;html=1;exitX=0.5;exitY=0;exitDx=0;exitDy=0;entryX=0.417;entryY=1.017;entryDx=0;entryDy=0;entryPerimeter=0;" edge="1" parent="1" source="mQKh0cZ0V53EBKpTxfbn-5" target="mQKh0cZ0V53EBKpTxfbn-6">
          <mxGeometry relative="1" as="geometry" />
        </mxCell>
        <mxCell id="mQKh0cZ0V53EBKpTxfbn-13" value="ALPACA" style="rounded=0;whiteSpace=wrap;html=1;" vertex="1" parent="1">
          <mxGeometry x="600" y="400" width="120" height="60" as="geometry" />
        </mxCell>
        <mxCell id="mQKh0cZ0V53EBKpTxfbn-19" style="edgeStyle=orthogonalEdgeStyle;rounded=0;orthogonalLoop=1;jettySize=auto;html=1;exitX=0.25;exitY=0;exitDx=0;exitDy=0;entryX=0.25;entryY=1;entryDx=0;entryDy=0;" edge="1" parent="1" source="mQKh0cZ0V53EBKpTxfbn-15" target="mQKh0cZ0V53EBKpTxfbn-4">
          <mxGeometry relative="1" as="geometry" />
        </mxCell>
        <mxCell id="mQKh0cZ0V53EBKpTxfbn-21" style="edgeStyle=orthogonalEdgeStyle;rounded=0;orthogonalLoop=1;jettySize=auto;html=1;exitX=0;exitY=0.25;exitDx=0;exitDy=0;entryX=1;entryY=0.75;entryDx=0;entryDy=0;" edge="1" parent="1" source="mQKh0cZ0V53EBKpTxfbn-15" target="mQKh0cZ0V53EBKpTxfbn-5">
          <mxGeometry relative="1" as="geometry" />
        </mxCell>
        <mxCell id="mQKh0cZ0V53EBKpTxfbn-15" value="MYSQL" style="rounded=0;whiteSpace=wrap;html=1;" vertex="1" parent="1">
          <mxGeometry x="365" y="510" width="120" height="60" as="geometry" />
        </mxCell>
        <mxCell id="mQKh0cZ0V53EBKpTxfbn-23" style="edgeStyle=orthogonalEdgeStyle;rounded=0;orthogonalLoop=1;jettySize=auto;html=1;exitX=0.25;exitY=1;exitDx=0;exitDy=0;entryX=0.342;entryY=0.067;entryDx=0;entryDy=0;entryPerimeter=0;" edge="1" parent="1" source="mQKh0cZ0V53EBKpTxfbn-5" target="mQKh0cZ0V53EBKpTxfbn-3">
          <mxGeometry relative="1" as="geometry" />
        </mxCell>
      </root>
    </mxGraphModel>
  </diagram>
</mxfile>
